inDegrees=yes
name=ik_S56_A03_T01
DataType=double
version=3
OpenSimVersion=4.3-2021-08-27-4bc7ad9
endheader
time	pelvis_tilt	pelvis_list	pelvis_rotation	pelvis_tx	pelvis_ty	pelvis_tz	hip_flexion_r	hip_adduction_r	hip_rotation_r	knee_angle_r	knee_angle_r_beta	ankle_angle_r	subtalar_angle_r	mtp_angle_r	hip_flexion_l	hip_adduction_l	hip_rotation_l	knee_angle_l	knee_angle_l_beta	ankle_angle_l	subtalar_angle_l	mtp_angle_l	lumbar_extension	lumbar_bending	lumbar_rotation	arm_flex_r	arm_add_r	arm_rot_r	elbow_flex_r	pro_sup_r	wrist_flex_r	wrist_dev_r	arm_flex_l	arm_add_l	arm_rot_l	elbow_flex_l	pro_sup_l	wrist_flex_l	wrist_dev_l
17.57999999999971	2.336114101274293	-1.032703459327952	90.91353612056247	0	0.9399999999999999	0	12.8865389549382	-0.7749657861929308	-4.311146508941615	27.38249015630715	0.4779146106224965	0	0	0	-1.272218276700521	2.055291265511578	-4.261087924806458	15.62439851925068	0.2726971978046511	0	0	0	0	0	0	40.66415019145434	-40.66415019145434	4.91153373566464	83.77551328192111	85.08846653507217	0	0	40.66415019145434	-40.66415019145434	4.91153373566464	83.77551328192111	85.08846653505553	0	0
17.59999999999971	2.465190815057027	-0.8361524712385761	91.37799326582766	0	0.9399999999999999	0	12.80493453219673	-0.4331355191652791	-4.253901393505778	26.25052677879466	0.458158122672908	0	0	0	-1.482106025490596	1.931653797308084	-3.834504458237516	15.4862876453018	0.2702867083214363	0	0	0	0	0	0	40.66500211522072	-40.66500211522072	4.911568699965233	83.77599731273267	85.08843157077317	0	0	40.66500211522072	-40.66500211522072	4.911568699965233	83.77599731273267	85.08843157075653	0	0
17.61999999999971	2.639615805072235	-0.6869586614956146	91.94762890480698	0	0.9399999999999999	0	15.0748371254935	-0.9525971139483557	-4.111879789872096	26.71140556251154	0.4662019749013545	0	0	0	-1.842637296861594	1.709041857724816	-3.76163459339904	15.17749306208614	0.2648972261319993	0	0	0	0	0	0	40.68117555203076	-40.68117555203076	4.91213385806129	83.78382047560793	85.08786641270136	0	0	40.68117555203076	-40.68117555203076	4.91213385806129	83.78382047560793	85.08786641268483	0	0
17.63999999999971	2.875548096920687	-0.6467995191744728	92.65674414086811	0	0.9399999999999999	0	15.92977420278642	-1.035569999810763	-4.380053211048349	26.52587205863292	0.4629638043859107	0	0	0	-2.051298893204296	1.383322526785121	-3.668546897073783	14.99655839652536	0.261739320486969	0	0	0	0	0	0	40.68165640519496	-40.68165640519496	4.912153514481404	83.78409258977642	85.08784675628212	0	0	40.68165640519496	-40.68165640519496	4.912153514481404	83.78409258977642	85.08784675626559	0	0
17.65999999999971	3.095768646825395	-0.6449328822968121	93.31645976379147	0	0.9399999999999999	0	16.5587869307998	-1.057484141117838	-4.699108820146997	24.91171613825375	0.4347914689347349	0	0	0	-2.271532100090828	1.048161655612589	-3.631499034797097	14.46989665894617	0.2525473391219377	0	0	0	0	0	0	40.6834184797936	-40.6834184797936	4.912225591698091	83.78509039266714	85.0877746790686	0	0	40.6834184797936	-40.6834184797936	4.912225591698091	83.78509039266714	85.0877746790521	0	0
17.67999999999971	3.311752150631281	-0.6758169059584139	94.03335692474232	0	0.9399999999999999	0	16.99959712640209	-0.9952759666532079	-4.688033795441535	22.49021522340703	0.3925283051306047	0	0	0	-2.334042245665211	0.6644557482566527	-3.444182961298045	14.2912893488521	0.2494300534926657	0	0	0	0	0	0	40.68434709345186	-40.68434709345186	4.912263582195905	83.78561631516193	85.08773668857246	0	0	40.68434709345186	-40.68434709345186	4.912263582195905	83.78561631516193	85.08773668855598	0	0
17.69999999999971	3.565252811189435	-0.671097649107977	95.1055683712333	0	0.9399999999999999	0	16.99039342232877	-1.015840163456777	-5.567091271432951	19.36994569250407	0.3380693282666891	0	0	0	-2.367689213655106	0.2136604789482228	-2.8000530606668	14.31293320875483	0.2498078101108086	0	0	0	0	0	0	40.68534735381714	-40.68534735381714	4.912304417475647	83.78618161885167	85.08769585329459	0	0	40.68534735381714	-40.68534735381714	4.912304417475647	83.78618161885167	85.08769585327809	0	0
17.71999999999971	3.639986930327988	-0.6830972972995691	95.77915616884495	0	0.9399999999999999	0	16.96266638994649	-1.143770272824926	-6.159434854264624	15.64314655977033	0.2730244128400161	0	0	0	-2.403790147232939	-0.07508736905452031	-2.459303467098176	14.25465172793371	0.2487906063775421	0	0	0	0	0	0	40.68633767018554	-40.68633767018554	4.912344682031901	83.78673902060764	85.08765558874011	0	0	40.68633767018554	-40.68633767018554	4.912344682031901	83.78673902060764	85.08765558872366	0	0
17.73999999999971	3.640621344217637	-0.7394470519638462	96.43991721814629	0	0.9399999999999999	0	17.08596920965895	-1.193528706699879	-5.828564462168189	13.65669748840172	0.2383543361214502	0	0	0	-2.474507073510139	-0.3338894461971731	-2.072672744619963	14.12269722350926	0.2464875658124981	0	0	0	0	0	0	40.68746710420736	-40.68746710420736	4.912390886279034	83.78737865012427	85.08760938449504	0	0	40.68746710420736	-40.68746710420736	4.912390886279034	83.78737865012427	85.08760938447861	0	0
17.75999999999971	3.542035669746651	-0.821399530389322	97.02701214095249	0	0.9399999999999999	0	16.97637049859767	-1.146203780437965	-5.848374558005353	6.803607867527527	0.1187453583029455	0	0	0	-2.605970724278225	-0.4693581190836744	-1.608810138758479	13.85780734245422	0.2418643652328716	0	0	0	0	0	0	40.6900883062454	-40.6900883062454	4.912497449160527	83.78885385084378	85.08750282161822	0	0	40.6900883062454	-40.6900883062454	4.912497449160527	83.78885385084378	85.0875028216018	0	0
17.77999999999971	3.366678171477755	-0.90653997405352	97.53017097093183	0	0.9399999999999999	0	16.8059157641471	-1.288307549196748	-6.34995962350666	3.509971965100188	0.06126056744369378	0	0	0	-3.186799542828106	-0.5750484042414047	-0.8331295450254007	13.17765756336808	0.2299935121811064	0	0	0	0	0	0	40.6920118864927	-40.6920118864927	4.912575172337601	83.78992980650712	85.08742509844446	0	0	40.6920118864927	-40.6920118864927	4.912575172337601	83.78992980650712	85.08742509842806	0	0
17.79999999999971	3.115711403152611	-0.9760474753062477	97.98879598904509	0	0.9399999999999999	0	16.64642317797283	-1.375149369635461	-6.742759965652326	0.9679914629070168	0.016894638158924	0	0	0	-3.644560195171648	-0.4753186257873513	-0.2393380177452041	12.68157702739735	0.221335273473359	0	0	0	0	0	0	40.69324970899348	-40.69324970899348	4.912625207107379	83.79062245967151	85.0873750636768	0	0	40.69324970899348	-40.69324970899348	4.912625207107379	83.79062245967151	85.08737506366045	0	0
17.81999999999971	2.849239392406301	-1.044373929442668	98.42233146846227	0	0.9399999999999999	0	16.63077490965568	-1.437544665901451	-7.17244935843619	-0.8483178103683956	-0.01480593889423739	0	0	0	-4.225691267155678	-0.3731148680310563	0.2764453217852031	12.10891653177423	0.2113404623286328	0	0	0	0	0	0	40.69408379780965	-40.69408379780965	4.912658967608694	83.7910898212707	85.08734130317698	0	0	40.69408379780965	-40.69408379780965	4.912658967608694	83.7910898212707	85.08734130316064	0	0
17.83999999999971	2.712343533170784	-1.090102192236167	98.60075562809863	0	0.9399999999999999	0	16.68960834036588	-1.97866033857345	-6.977506448008752	-2.734232545195256	-0.04772136042884189	0	0	0	-4.204245998624899	-0.2288868572309272	0.4630090969501376	12.08988621825044	0.2110083206999559	0	0	0	0	0	0	40.69501567039364	-40.69501567039364	4.912696826467569	83.79161391909949	85.08730344431976	0	0	40.69501567039364	-40.69501567039364	4.912696826467569	83.79161391909949	85.08730344430343	0	0
17.85999999999971	2.482366975944186	-1.131988807274949	98.8814110894125	0	0.9399999999999999	0	16.63205138250269	-2.016981286467947	-7.482803734671506	-2.594556737441284	-0.04528355769815245	0	0	0	-4.880695807785895	-0.2409062430818742	0.8751042033013466	11.51360911430035	0.2009503878321692	0	0	0	0	0	0	40.69586598776014	-40.69586598776014	4.912731476627322	83.79209359803134	85.08726879416147	0	0	40.69586598776014	-40.69586598776014	4.912731476627322	83.79209359803134	85.08726879414515	0	0
17.87999999999971	2.214316171259553	-1.126403865650586	98.98546784636676	0	0.9399999999999999	0	16.699173115226	-2.166809007537313	-7.218288074802527	-3.124749771932759	-0.05453717182116853	0	0	0	-6.571273225150423	-0.2713547128955403	1.757727885984104	9.921525156560598	0.1731632808014283	0	0	0	0	0	0	40.69725770914829	-40.69725770914829	4.912788119392579	83.79287773062302	85.08721215139863	0	0	40.69725770914829	-40.69725770914829	4.912788119392579	83.79287773062302	85.08721215138242	0	0
17.89999999999971	2.172323841091707	-1.113484831816977	98.89434510391109	0	0.9399999999999999	0	16.78041314458985	-1.732862642116063	-6.959503997460651	-3.50630589986271	-0.06119658253470688	0	0	0	-6.589364504701173	-0.2714051205260998	1.674767045611755	9.936988175149363	0.1734331613880994	0	0	0	0	0	0	40.69775697637967	-40.69775697637967	4.912808440120773	83.79315904007613	85.08719183067136	0	0	40.69775697637967	-40.69775697637967	4.912808440120773	83.79315904007613	85.08719183065513	0	0
17.91999999999971	2.035488238210414	-1.054053885071748	98.71718281971427	0	0.9399999999999999	0	16.68818551937322	-1.736873423126085	-6.766781943055801	-3.555634187623351	-0.06205752357050129	0	0	0	-7.743974742281082	-0.2725566515095657	1.914754014054284	8.94783908067477	0.1561692528963973	0	0	0	0	0	0	40.69874834607396	-40.69874834607396	4.912848852725461	83.79371849123197	85.08715141806844	0	0	40.69874834607396	-40.69874834607396	4.912848852725461	83.79371849123197	85.08715141805226	0	0
17.93999999999971	1.922971103883577	-0.982311427185652	98.44726826127888	0	0.9399999999999999	0	16.86173549606734	-1.221314361256057	-6.200031894637665	-3.065168014330927	-0.05349727397689142	0	0	0	-9.017043524511571	-0.2861816560643088	2.002896693128196	7.776194744773739	0.1357202015725819	0	0	0	0	0	0	40.69977408231005	-40.69977408231005	4.912890535307947	83.79429552240785	85.08710973548777	0	0	40.69977408231005	-40.69977408231005	4.912890535307947	83.79429552240785	85.08710973547157	0	0
17.95999999999971	1.788066975514311	-0.9597979190669014	98.2424338682941	0	0.9399999999999999	0	16.82340495295964	-1.093016485825263	-6.061589265081644	-2.39358230543622	-0.0417758921473386	0	0	0	-10.32949250804731	-0.2824732629253979	2.042182413273347	6.623627371919477	0.1156041060652139	0	0	0	0	0	0	40.70096694187523	-40.70096694187523	4.912939144907003	83.79496844823622	85.08706112589087	0	0	40.70096694187523	-40.70096694187523	4.912939144907003	83.79496844823622	85.08706112587467	0	0
17.97999999999971	1.426732297750568	-1.078168110391924	98.15636667351218	0	0.9399999999999999	0	16.85568692756671	-1.249383428715226	-6.073850684346275	-1.765837079671029	-0.03081967109406089	0	0	0	-11.46342197213695	-0.1290589419229684	2.139739068261857	5.694247895879401	0.09938337420785479	0	0	0	0	0	0	40.70212179358526	-40.70212179358526	4.912986199025374	83.79561984067402	85.08701407177455	0	0	40.70212179358526	-40.70212179358526	4.912986199025374	83.79561984067402	85.08701407175842	0	0
17.99999999999971	1.224402364325194	-1.347681424173377	98.36252564965622	0	0.9399999999999999	0	16.79491796199249	-0.4637824307767771	-6.741639386913993	-1.579984467993672	-0.02757593109686055	0	0	0	-12.40587562076062	-0.2649679864295629	2.394201339876501	4.93718888301307	0.08617020180143921	0	0	0	0	0	0	40.70307201783202	-40.70307201783202	4.913024899316523	83.7961555869603	85.08697537148512	0	0	40.70307201783202	-40.70307201783202	4.913024899316523	83.7961555869603	85.08697537146899	0	0
